<?xml version="1.0" encoding="utf-8"?><!DOCTYPE svg PUBLIC "-//W3C//DTD SVG 1.1//EN" "http://www.w3.org/Graphics/SVG/1.1/DTD/svg11.dtd"><svg xmlns="http://www.w3.org/2000/svg" xmlns:xlink="http://www.w3.org/1999/xlink"><symbol viewBox="0 0 100 100" id="github"><path d="M49.844 0C22.216 0-.184 22.4-.184 50.035c0 22.104 14.332 40.857 34.218 47.476 2.502.456 3.413-1.086 3.413-2.41 0-1.188-.042-4.338-.066-8.515-13.916 3.024-16.856-6.707-16.856-6.707-2.273-5.774-5.555-7.317-5.555-7.317-4.542-3.1.344-3.04.344-3.04 5.02.354 7.664 5.16 7.664 5.16 4.463 7.64 11.71 5.434 14.56 4.155.455-3.23 1.748-5.44 3.18-6.688-11.11-1.267-22.79-5.556-22.79-24.728 0-5.466 1.948-9.93 5.145-13.426-.513-1.266-2.23-6.353.492-13.243 0 0 4.2-1.346 13.76 5.13 3.99-1.11 8.27-1.665 12.524-1.683 4.25.018 8.527.573 12.524 1.683 9.554-6.476 13.746-5.13 13.746-5.13 2.73 6.89 1.012 11.978.5 13.244 3.203 3.497 5.14 7.96 5.14 13.425 0 19.22-11.697 23.45-22.844 24.686 1.796 1.547 3.396 4.6 3.396 9.268 0 6.69-.062 12.08-.062 13.727 0 1.34.9 2.893 3.44 2.407 19.865-6.63 34.186-25.37 34.186-47.47C99.878 22.4 77.48 0 49.844 0z"/></symbol><symbol viewBox="0 0 358.227 358.227" id="logo"><path fill="#555" d="M186.092 75.464v135.28c0 4.406-3.093 7.98-7.5 7.98s-7.5-3.574-7.5-7.98V75.463h-17v151.24l17 8.512v47.248h15v-47.248l16-8.512V75.464h-16z"/><path fill="#00B7C6" d="M266.487 137.93l4.796-22.466h-12.095l-39.933 144h13.49l28.297-101.666 22.56 30.13-32.707 43.722 13.492 8.78 39.246-52.656M93.283 240.42L54.24 187.89l39.043-52.534 13.49 8.79-32.705 43.744 32.705 43.742-13.49 8.79z"/></symbol><symbol viewBox="0 0 358 358" id="logoBlock"><path fill="#555" d="M358 21.864C358 9.79 348.212 0 336.137 0H21.863C9.788 0 0 9.79 0 21.864v314.27C0 348.212 9.788 358 21.863 358h314.273C348.21 358 358 348.21 358 336.136V21.864zM87.166 246.824L69.83 258.123l-50.17-67.508 50.17-67.505L87.166 134.4 45.14 190.614l42.026 56.21zM210 240.495l-21 10.94V313h-19v-61.566l-21-10.938V47h21v172.985c0 5.663 3.837 10.255 9.5 10.255 5.662 0 9.5-4.592 9.5-10.255V47h21v193.495zm79.703 17.654l-17.338-11.268 42.03-56.16-28.99-38.568L249.045 283h-17.338L283.02 98h15.544l-6.162 28.644 47.732 63.946-50.43 67.558z"/></symbol><symbol viewBox="0 0 249.392 207" id="logo_plain"><path fill="#555" d="M131.85 0v135.28c0 4.406-3.092 7.98-7.5 7.98s-7.5-3.574-7.5-7.98V0h-17v151.24l17 8.512V207h15v-47.248l16-8.512V0h-16z"/><path fill="#00B7C6" d="M212.246 62.465L217.042 40h-12.096l-39.932 144h13.49l28.297-101.666 22.56 30.13-32.707 43.723 13.493 8.78 39.246-52.656M39.042 164.957L0 112.424 39.042 59.89l13.49 8.79-32.705 43.744 32.705 43.742-13.49 8.79z"/></symbol><symbol viewBox="0 0 500 500" id="twitterCircle"><path d="M250 0C111.93 0 0 111.93 0 250s111.93 250 250 250 250-111.93 250-250S388.07 0 250 0zm139.386 193.414c-5.45 3.89-15.174 11.67-15.174 11.67s1.196 17.668-1.518 38.695c-10.026 54.288-47.347 98.995-97.202 119.38-8.965 3.09-18.897 5.795-30.025 8.01-16.215 3.23-30.827 4.047-43.814 3.358-23.91-1.93-46.34-9.092-66.145-20.343-4.968-3.253-7.508-5.573-7.508-5.573s31.117 2.723 52.9-7c21.783-9.722 28.784-17.117 28.784-17.117s-21.393-.772-36.176-14.774c-14.78-14-15.168-25.282-15.168-25.282s7.392 2.334 12.448 2.334c5.06 0 11.67-2.334 11.67-2.334s-21.783-6.227-32.672-20.62c-10.892-14.393-12.06-35.395-12.06-35.395s5.446 3.498 12.06 5.053c6.61 1.555 12.833 2.333 12.833 1.166 0-1.166-19.84-14-22.56-31.505-2.724-17.504-1.56-27.227.776-33.45 2.332-6.225 5.834-10.892 5.834-10.892s23.336 29.95 51.732 42.787c28.393 12.835 64.958 17.114 64.958 17.114s-3.505-28.005 6.22-42.008c9.725-14.002 27.23-30.73 57.57-27.616 30.337 3.113 32.675 18.28 32.675 18.28s7-1.165 16.337-5.055c9.33-3.893 19.055-10.504 19.055-10.504s-1.163 11.28-8.943 19.062c-7.78 7.776-13.224 12.84-13.22 12.84L403 176.3s-8.165 13.223-13.614 17.114z"/></symbol></svg>