<?xml version="1.0" encoding="utf-8"?>
<!-- Generator: Adobe Illustrator 16.0.0, SVG Export Plug-In . SVG Version: 6.00 Build 0)  -->
<!DOCTYPE svg PUBLIC "-//W3C//DTD SVG 1.1//EN" "http://www.w3.org/Graphics/SVG/1.1/DTD/svg11.dtd">
<svg version="1.1" id="Layer_1" xmlns="http://www.w3.org/2000/svg" xmlns:xlink="http://www.w3.org/1999/xlink" x="0px" y="0px"
	 width="358px" height="358px" viewBox="0 0 358 358" enable-background="new 0 0 358 358" xml:space="preserve">
<path fill="#555555" d="M358,21.864C358,9.789,348.212,0,336.137,0H21.863C9.788,0,0,9.789,0,21.864v314.271
	C0,348.211,9.788,358,21.863,358h314.273c12.075,0,21.863-9.789,21.863-21.864V21.864z M87.166,246.825L69.83,258.122
	l-50.169-67.508l50.169-67.505l17.336,11.293l-42.027,56.212L87.166,246.825z M210,240.495l-21,10.938V313h-19v-61.566l-21-10.938
	V47h21v172.985c0,5.663,3.837,10.255,9.5,10.255c5.662,0,9.5-4.592,9.5-10.255V47h21V240.495z M289.703,258.148l-17.338-11.268
	l42.029-56.159l-28.989-38.569L249.046,283h-17.339l51.314-185h15.543l-6.162,28.644l47.732,63.946L289.703,258.148z"/>
</svg>
