<?xml version="1.0" encoding="utf-8"?>
<!-- Generator: Adobe Illustrator 16.0.0, SVG Export Plug-In . SVG Version: 6.00 Build 0)  -->
<!DOCTYPE svg PUBLIC "-//W3C//DTD SVG 1.1//EN" "http://www.w3.org/Graphics/SVG/1.1/DTD/svg11.dtd">
<svg version="1.1" id="Layer_1" xmlns="http://www.w3.org/2000/svg" xmlns:xlink="http://www.w3.org/1999/xlink" x="0px" y="0px"
	 width="249.392px" height="207px" viewBox="0 0 249.392 207" enable-background="new 0 0 249.392 207" xml:space="preserve">
<path fill="#555555" d="M131.851,0v135.279c0,4.407-3.093,7.98-7.5,7.98s-7.5-3.573-7.5-7.98V0h-17v151.24l17,8.512V207h15v-47.248
	l16-8.512V0H131.851z"/>
<polygon fill="#00B7C6" points="212.246,62.465 217.042,40 204.946,40 165.014,184 178.505,184 206.801,82.334 229.36,112.465 
	196.653,156.187 210.146,164.967 249.392,112.311 "/>
<g>
	<path fill="#00B7C6" d="M39.042,164.957L0,112.424L39.042,59.89l13.49,8.789l-32.705,43.745l32.705,43.742L39.042,164.957z"/>
</g>
</svg>
