<?xml version="1.0" encoding="utf-8"?>
<!-- Generator: Adobe Illustrator 16.0.0, SVG Export Plug-In . SVG Version: 6.00 Build 0)  -->
<!DOCTYPE svg PUBLIC "-//W3C//DTD SVG 1.1//EN" "http://www.w3.org/Graphics/SVG/1.1/DTD/svg11.dtd">
<svg version="1.1" id="Layer_1" xmlns="http://www.w3.org/2000/svg" xmlns:xlink="http://www.w3.org/1999/xlink" x="0px" y="0px"
	 width="358.227px" height="358.227px" viewBox="0 0 358.227 358.227" enable-background="new 0 0 358.227 358.227"
	 xml:space="preserve">
<path fill="#555555" d="M186.092,75.464v135.279c0,4.407-3.093,7.98-7.5,7.98s-7.5-3.573-7.5-7.98V75.464h-17v151.24l17,8.512
	v47.248h15v-47.248l16-8.512V75.464H186.092z"/>
<polygon fill="#00B7C6" points="266.487,137.929 271.283,115.464 259.188,115.464 219.255,259.464 232.746,259.464 261.042,157.798 
	283.602,187.929 250.895,231.65 264.387,240.431 303.633,187.774 "/>
<g>
	<path fill="#00B7C6" d="M93.283,240.421l-39.042-52.533l39.042-52.534l13.49,8.789l-32.705,43.745l32.705,43.742L93.283,240.421z"
		/>
</g>
</svg>
